<svg id="visual" viewBox="0 0 900 600" width="900" height="600" xmlns="http://www.w3.org/2000/svg" xmlns:xlink="http://www.w3.org/1999/xlink" version="1.1"><rect x="0" y="0" width="900" height="600" fill="#1e1e1e"></rect><path d="M0 409L9.3 421.2C18.7 433.3 37.3 457.7 56.2 459.8C75 462 94 442 112.8 438.7C131.7 435.3 150.3 448.7 169 451.7C187.7 454.7 206.3 447.3 225 438.3C243.7 429.3 262.3 418.7 281.2 415C300 411.3 319 414.7 337.8 427.5C356.7 440.3 375.3 462.7 394 466C412.7 469.3 431.3 453.7 450 451.7C468.7 449.7 487.3 461.3 506.2 465.8C525 470.3 544 467.7 562.8 465.2C581.7 462.7 600.3 460.3 619 462.5C637.7 464.7 656.3 471.3 675 477.2C693.7 483 712.3 488 731.2 478.8C750 469.7 769 446.3 787.8 438.7C806.7 431 825.3 439 844 448.2C862.7 457.3 881.3 467.7 890.7 472.8L900 478L900 601L890.7 601C881.3 601 862.7 601 844 601C825.3 601 806.7 601 787.8 601C769 601 750 601 731.2 601C712.3 601 693.7 601 675 601C656.3 601 637.7 601 619 601C600.3 601 581.7 601 562.8 601C544 601 525 601 506.2 601C487.3 601 468.7 601 450 601C431.3 601 412.7 601 394 601C375.3 601 356.7 601 337.8 601C319 601 300 601 281.2 601C262.3 601 243.7 601 225 601C206.3 601 187.7 601 169 601C150.3 601 131.7 601 112.8 601C94 601 75 601 56.2 601C37.3 601 18.7 601 9.3 601L0 601Z" fill="#00D1B2" stroke-linecap="round" stroke-linejoin="miter"></path></svg>